HIERARCHY
ROOT Hips
{
	OFFSET 0.000000 0.000000 0.000000 
	CHANNELS 6 Xposition Yposition Zposition Zrotation Yrotation Xrotation
	JOINT LeftUpLeg
	{
		OFFSET 1.363060 -1.794630 0.839290 
		CHANNELS 3 Zrotation Yrotation Xrotation
		JOINT LeftLeg
		{
			OFFSET 2.448110 -6.726130 0.000000 
			CHANNELS 3 Zrotation Yrotation Xrotation
			JOINT LeftFoot
			{
				OFFSET 2.562200 -7.039590 0.000000 
				CHANNELS 3 Zrotation Yrotation Xrotation
				JOINT LeftToeBase
				{
					OFFSET 0.157640 -0.433110 2.322550 
					CHANNELS 3 Zrotation Yrotation Xrotation
					End Site
					{
						OFFSET 0.000000 0.000000 0.000000 
					}
				}
			}
		}
	}
	JOINT RightUpLeg
	{
		OFFSET -1.305520 -1.794630 0.839290 
		CHANNELS 3 Zrotation Yrotation Xrotation
		JOINT RightLeg
		{
			OFFSET -2.542530 -6.985550 0.000000 
			CHANNELS 3 Zrotation Yrotation Xrotation
			JOINT RightFoot
			{
				OFFSET -2.568260 -7.056230 0.000000 
				CHANNELS 3 Zrotation Yrotation Xrotation
				JOINT RightToeBase
				{
					OFFSET -0.164730 -0.452590 2.363150 
					CHANNELS 3 Zrotation Yrotation Xrotation
					End Site
					{
						OFFSET 0.000000 0.000000 0.000000 
					}
				}
			}
		}
	}
	JOINT Spine
	{
		OFFSET 0.028270 2.035590 -0.193380 
		CHANNELS 3 Zrotation Yrotation Xrotation
		JOINT Spine1
		{
			OFFSET 0.056720 2.048850 -0.042750 
			CHANNELS 3 Zrotation Yrotation Xrotation
			JOINT Neck1
			{
				OFFSET -0.054170 1.746240 0.172020 
				CHANNELS 3 Zrotation Yrotation Xrotation
				JOINT Head
				{
					OFFSET 0.104070 1.761360 -0.123970 
					CHANNELS 3 Zrotation Yrotation Xrotation
					End Site
					{
						OFFSET 0.000000 0.000000 0.000000 
					}
				}
			}
			JOINT LeftArm
			{
				OFFSET 3.362410 1.200890 -0.311210 
				CHANNELS 3 Zrotation Yrotation Xrotation
				JOINT LeftForeArm
				{
					OFFSET 4.983000 -0.000000 -0.000000 
					CHANNELS 3 Zrotation Yrotation Xrotation
					JOINT LeftHand
					{
						OFFSET 3.483560 -0.000000 -0.000000 
						CHANNELS 3 Zrotation Yrotation Xrotation
						JOINT LeftHandIndex1
						{
							OFFSET 0.715260 -0.000000 -0.000000 
							CHANNELS 3 Zrotation Yrotation Xrotation
							End Site
							{
								OFFSET 0.000000 0.000000 0.000000 
							}
						}
					}
				}
			}
			JOINT RightArm
			{
				OFFSET -3.136600 1.374050 -0.404650 
				CHANNELS 3 Zrotation Yrotation Xrotation
				JOINT RightForeArm
				{
					OFFSET -5.241900 -0.000000 -0.000000 
					CHANNELS 3 Zrotation Yrotation Xrotation
					JOINT RightHand
					{
						OFFSET -3.444170 -0.000000 -0.000000 
						CHANNELS 3 Zrotation Yrotation Xrotation
						JOINT RightHandIndex1
						{
							OFFSET -0.622530 -0.000000 -0.000000 
							CHANNELS 3 Zrotation Yrotation Xrotation
							End Site
							{
								OFFSET 0.000000 0.000000 0.000000 
							}
						}
					}
				}
			}
		}
	}
}
MOTION
Frames: 9
Frame Time: 0.041667
-0.680875 18.289646 4.855513 -0.845164 0.802441 -3.198415 -13.016523 -7.655068 -6.351625 1.352546 7.337300 24.635229 -0.828295 6.785941 -12.395885 8.609300 -16.549600 -54.728900 2.853037 1.973721 -1.396233 0.019016 0.878699 1.460127 0.345694 -0.687358 5.716105 0.000000 0.000000 0.000000 -8.032878 -2.037701 32.584153 0.377114 -0.811909 -17.342934 14.427598 -13.510165 30.855505 2.955500 -4.804000 11.874100 -96.729525 -47.827331 72.057498 66.200230 -57.561831 -35.707041 0.164835 1.104221 -20.076878 -7.125000 0.000000 0.000000 75.691042 3.342084 38.462392 -126.426538 47.495228 -89.993406 0.902189 1.083089 -21.147497 7.125000 0.000000 0.000000 
-0.682248 18.285529 4.868353 -0.778081 0.789793 -3.292950 -13.035661 -7.574745 -6.214179 1.347666 7.339814 24.614388 -0.815352 6.742606 -12.402345 8.641900 -16.571700 -54.843300 2.846511 1.977681 -1.389651 0.018954 0.883910 1.463073 0.347740 -0.681549 5.717380 0.000000 0.000000 0.000000 -8.557380 -2.247757 32.208605 0.285735 -0.980965 -17.581205 14.418194 -13.299695 30.751623 2.948000 -4.708000 11.769400 -96.059693 -46.525674 71.837349 63.741894 -56.976800 -33.048330 -0.132467 1.070853 -28.936350 -7.125000 0.000000 0.000000 77.635939 1.143376 38.224464 -127.923335 46.807442 -91.796624 1.569874 1.008593 -8.310636 7.125000 0.000000 0.000000 
-0.684502 18.281805 4.877370 -0.822533 0.664118 -3.427565 -13.134760 -7.417853 -6.053685 1.363063 7.327604 24.665915 -0.809257 6.721269 -12.449812 8.624000 -16.559600 -54.780500 2.870817 1.970061 -1.407584 0.016823 0.871280 1.457317 0.343859 -0.695571 5.715434 0.000000 0.000000 0.000000 -7.337678 -2.737620 32.613691 0.166020 -1.109995 -17.583966 13.891197 -12.826846 30.379001 2.871500 -4.585900 11.610200 -96.380244 -45.197249 71.321328 59.888456 -56.100241 -29.911227 -0.223326 1.036501 -37.519435 -7.125000 0.000000 0.000000 78.965140 0.052201 37.404507 -128.649304 46.442682 -92.764210 2.203052 0.659168 -1.013677 7.125000 0.000000 0.000000 
-0.687638 18.280629 4.878840 -0.644011 -0.161721 -3.256221 -13.345954 -7.025291 -6.143994 1.352026 7.326021 24.664017 -0.857367 6.998643 -12.714458 8.579000 -16.529000 -54.622400 2.877270 1.965920 -1.412331 0.016850 0.865904 1.454858 0.342241 -0.701267 5.713900 0.000000 0.000000 0.000000 -7.391210 -2.852714 32.398313 0.336076 -1.132977 -17.656751 12.879161 -12.156002 30.574224 2.630200 -4.379900 11.514700 -96.872483 -43.185178 70.278738 56.622478 -55.234797 -27.593490 -0.031444 1.085878 -40.515645 -7.125000 0.000000 0.000000 79.894555 -0.453692 38.325399 -128.486124 46.480477 -92.582045 2.407918 0.664073 0.512286 7.125000 0.000000 0.000000 
-0.642750 18.280629 4.854435 -0.190702 -2.440258 -2.642537 -13.927113 -6.615095 -6.547157 1.281235 7.370024 24.630297 -1.055304 8.176807 -13.865230 8.464400 -16.450400 -54.218700 2.848725 1.974245 -1.391076 0.019548 0.879515 1.461984 0.346742 -0.685497 5.715125 0.000000 0.000000 0.000000 -9.375551 -2.211065 31.279346 0.507866 -0.976248 -17.843753 11.901071 -11.384438 31.137291 2.365300 -4.084600 11.459100 -95.791250 -40.551167 68.871231 57.893625 -55.612351 -28.715024 0.009976 1.134438 -33.165883 -7.125000 0.000000 0.000000 80.396609 -0.448020 39.286685 -127.502469 46.844632 -91.356591 1.721635 1.075131 -4.212145 7.125000 0.000000 0.000000 
-0.626774 18.280531 4.867863 0.132601 -3.253188 -2.550962 -14.300980 -6.396928 -6.461476 1.256011 7.366332 24.600653 -1.091179 8.490618 -14.388124 8.421700 -16.420800 -54.067700 2.837746 1.977716 -1.383507 0.020535 0.885027 1.464551 0.348236 -0.679328 5.715820 0.000000 0.000000 0.000000 -10.389661 -2.323836 31.000280 0.777223 -1.128609 -17.725476 11.170928 -10.615195 31.260377 2.199200 -3.778600 11.372300 -94.756048 -38.433232 67.722593 58.974021 -55.908289 -29.705066 0.038914 1.163837 -25.387279 -7.125000 0.000000 0.000000 80.761703 -0.539753 39.652325 -126.104024 47.286591 -89.814432 1.137116 0.919324 -14.021923 7.125000 0.000000 0.000000 
-0.612562 18.280237 4.878644 0.316077 -4.043249 -2.444532 -14.534973 -6.175696 -6.422355 1.232654 7.353284 24.561164 -1.126826 8.784780 -14.857913 8.377900 -16.390300 -53.912700 2.832293 1.980244 -1.380820 0.020930 0.888189 1.466038 0.349171 -0.675803 5.716277 0.000000 0.000000 0.000000 -10.974702 -2.356555 31.021230 0.903940 -1.210894 -17.525684 10.908199 -10.174735 31.106637 2.132700 -3.578800 11.305100 -93.914927 -37.185487 66.807808 59.825832 -56.108240 -30.446183 0.075191 1.164220 -22.816952 -7.125000 0.000000 0.000000 81.048663 -1.227238 39.096729 -125.285699 47.501730 -88.812597 0.710520 0.765361 -23.086986 7.125000 0.000000 0.000000 
-0.600507 18.277591 4.891287 0.421491 -4.745140 -2.476136 -14.717707 -5.818577 -6.243526 1.207165 7.292756 24.437095 -1.137397 8.927192 -15.181039 8.308500 -16.341500 -53.666300 2.836074 1.980596 -1.386165 0.020458 0.887026 1.465342 0.348850 -0.677204 5.716236 0.000000 0.000000 0.000000 -10.903184 -2.303820 31.578487 0.911408 -1.198307 -17.241249 11.032729 -10.040302 30.629199 2.163100 -3.493700 11.270700 -93.298486 -36.846687 66.927503 60.210844 -56.182198 -30.743034 0.071086 1.171752 -23.629942 -7.125000 0.000000 0.000000 80.946252 -2.403523 38.649722 -124.341881 47.738240 -87.791543 0.533724 0.694718 -25.579236 7.125000 0.000000 0.000000 
-0.590314 18.274454 4.906773 0.562887 -5.303001 -2.630601 -14.931596 -5.419864 -5.956442 1.190146 7.232923 24.328688 -1.123480 8.950864 -15.427991 8.239300 -16.292500 -53.420100 2.841223 1.979993 -1.393187 0.020065 0.884439 1.464104 0.348293 -0.680001 5.715649 0.000000 0.000000 0.000000 -10.711593 -2.172901 32.138586 0.936008 -1.109488 -17.073388 11.313530 -10.047759 30.037124 2.247100 -3.478200 11.208100 -92.906486 -36.846666 67.546466 60.412420 -56.195074 -30.771369 0.030124 1.177592 -26.156779 -7.125000 0.000000 0.000000 80.400132 -4.080169 38.509807 -124.285818 47.673409 -87.875434 0.632427 0.745244 -23.116396 7.125000 0.000000 0.000000 
